<?xml version="1.0" encoding="UTF-8"?>
<svg version="1.1" xmlns="http://www.w3.org/2000/svg" width="512" height="512">
<path d="M0 0 C1.01790619 0.00215515 2.03581238 0.0043103 3.08456421 0.00653076 C17.69363523 0.05620146 32.02575853 0.30709809 46.375 3.3125 C47.34985352 3.51117676 48.32470703 3.70985352 49.32910156 3.91455078 C97.7109774 14.03517194 141.69928269 35.9516877 177.375 70.3125 C178.3640332 71.26068604 178.3640332 71.26068604 179.37304688 72.22802734 C188.86130305 81.37247479 197.6012044 90.66984009 205.375 101.3125 C206.23306152 102.46355017 207.09113451 103.61459177 207.94921875 104.765625 C213.98736829 112.95680614 219.34595521 121.47054105 224.375 130.3125 C224.73948242 130.94430176 225.10396484 131.57610352 225.47949219 132.22705078 C247.08534998 169.97532572 256.85198095 212.74189997 256.6875 255.9375 C256.68534485 256.95540619 256.6831897 257.97331238 256.68096924 259.02206421 C256.63129854 273.63113523 256.38040191 287.96325853 253.375 302.3125 C253.07698486 303.77478027 253.07698486 303.77478027 252.77294922 305.26660156 C242.65232806 353.6484774 220.7358123 397.63678269 186.375 433.3125 C185.74287598 433.97185547 185.11075195 434.63121094 184.45947266 435.31054688 C175.31502521 444.79880305 166.01765991 453.5387044 155.375 461.3125 C154.22394983 462.17056152 153.07290823 463.02863451 151.921875 463.88671875 C143.73224019 469.92427396 135.22961724 475.30707302 126.375 480.3125 C125.66778809 480.7146875 124.96057617 481.116875 124.23193359 481.53125 C101.09654164 494.5566741 75.92537591 503.30551461 49.9375 508.625 C49.21860596 508.77235596 48.49971191 508.91971191 47.7590332 509.0715332 C33.08339502 511.86090125 18.55831162 512.66142619 3.64770508 512.62817383 C0.70811513 512.6250221 -2.2304558 512.64854926 -5.16992188 512.67382812 C-18.54306192 512.71848737 -31.43916711 511.51301542 -44.625 509.3125 C-46.33055054 509.03031616 -46.33055054 509.03031616 -48.07055664 508.74243164 C-91.33802759 500.97044532 -132.38793216 480.98345309 -165.625 452.3125 C-166.37007813 451.67828125 -167.11515625 451.0440625 -167.8828125 450.390625 C-181.38779833 438.57948485 -194.05918743 425.82889772 -204.625 411.3125 C-205.48149066 410.16255169 -206.33826433 409.01281411 -207.1953125 407.86328125 C-213.23534209 399.67315742 -218.61867614 391.16870382 -223.625 382.3125 C-224.0271875 381.60528809 -224.429375 380.89807617 -224.84375 380.16943359 C-237.8691741 357.03404164 -246.61801461 331.86287591 -251.9375 305.875 C-252.08485596 305.15610596 -252.23221191 304.43721191 -252.3840332 303.6965332 C-255.35789088 288.05024391 -255.99800362 272.57681954 -255.9375 256.6875 C-255.93534485 255.66959381 -255.9331897 254.65168762 -255.93096924 253.60293579 C-255.88129854 238.99386477 -255.63040191 224.66174147 -252.625 210.3125 C-252.42632324 209.33764648 -252.22764648 208.36279297 -252.02294922 207.35839844 C-241.90232806 158.9765226 -219.9858123 114.98821731 -185.625 79.3125 C-184.99287598 78.65314453 -184.36075195 77.99378906 -183.70947266 77.31445312 C-174.56502521 67.82619695 -165.26765991 59.0862956 -154.625 51.3125 C-153.47394983 50.45443848 -152.32290823 49.59636549 -151.171875 48.73828125 C-142.98224019 42.70072604 -134.47961724 37.31792698 -125.625 32.3125 C-124.91778809 31.9103125 -124.21057617 31.508125 -123.48193359 31.09375 C-100.34654164 18.0683259 -75.17537591 9.31948539 -49.1875 4 C-48.46860596 3.85264404 -47.74971191 3.70528809 -47.0090332 3.5534668 C-31.36274391 0.57960912 -15.88931954 -0.06050362 0 0 Z " fill="#C7102E" transform="translate(255.625,-0.3125)"/>
<path d="M0 0 C0.33 0 0.66 0 1 0 C2.30271196 50.85787507 -25.72077702 105.22521038 -58 143 C-58.63679687 143.74894531 -59.27359375 144.49789062 -59.9296875 145.26953125 C-71.74702468 158.76520621 -84.48551588 171.43558025 -99 182 C-100.14994831 182.85649066 -101.29968589 183.71326433 -102.44921875 184.5703125 C-110.63934258 190.61034209 -119.14379618 195.99367614 -128 201 C-129.06081787 201.60328125 -129.06081787 201.60328125 -130.14306641 202.21875 C-159.82219403 218.92835341 -194.73220901 230.96158209 -229 232 C-229 231.67 -229 231.34 -229 231 C-224.71 230.67 -220.42 230.34 -216 230 C-216 159.05 -216 88.1 -216 15 C-145.05 15 -74.1 15 -1 15 C-0.67 10.05 -0.34 5.1 0 0 Z " fill="#FDFBFB" transform="translate(510,279)"/>
<path d="M0 0 C0.33 0 0.66 0 1 0 C1.33 4.29 1.66 8.58 2 13 C72.95 13 143.9 13 217 13 C217 83.95 217 154.9 217 228 C218.98 228 220.96 228 223 228 C223 228.33 223 228.66 223 229 C174.08406476 230.84154109 119.45602022 198.64066039 84.1875 166.875 C82.10365855 164.93851161 80.04889385 162.97337747 78 161 C77.34064453 160.36787598 76.68128906 159.73575195 76.00195312 159.08447266 C66.51369695 149.94002521 57.7737956 140.64265991 50 130 C49.14193848 128.84894983 48.28386549 127.69790823 47.42578125 126.546875 C41.38822604 118.35724019 36.00542698 109.85461724 31 101 C30.5978125 100.29278809 30.195625 99.58557617 29.78125 98.85693359 C13.07164659 69.17780597 1.03841791 34.26779099 0 0 Z " fill="#FCFAFB" transform="translate(1,281)"/>
<path d="M0 0 C30.40043703 0.53590514 60.82214223 11.03265083 88 24 C89.14106201 24.54261475 89.14106201 24.54261475 90.30517578 25.09619141 C113.06301486 36.10341837 133.83202366 51.50164335 152 69 C152.9890332 69.94818604 152.9890332 69.94818604 153.99804688 70.91552734 C163.48630305 80.05997479 172.2262044 89.35734009 180 100 C180.85806152 101.15105017 181.71613451 102.30209177 182.57421875 103.453125 C188.61236829 111.64430614 193.97095521 120.15804105 199 129 C199.36448242 129.63180176 199.72896484 130.26360352 200.10449219 130.91455078 C214.33701651 155.78064248 228 187.98127953 228 217 C157.05 217 86.1 217 13 217 C13 146.05 13 75.1 13 2 C8.71 1.67 4.42 1.34 0 1 C0 0.67 0 0.34 0 0 Z " fill="#FCFAFB" transform="translate(281,1)"/>
<path d="M0 0 C0 0.33 0 0.66 0 1 C-1.98 1 -3.96 1 -6 1 C-6 71.95 -6 142.9 -6 216 C-76.95 216 -147.9 216 -221 216 C-221 206.9807074 -221 206.9807074 -219.96875 202.59375 C-219.73953857 201.61494873 -219.51032715 200.63614746 -219.27416992 199.62768555 C-219.01869385 198.59554932 -218.76321777 197.56341309 -218.5 196.5 C-218.23227783 195.40921143 -217.96455566 194.31842285 -217.6887207 193.19458008 C-206.60588116 149.28960646 -185.45558536 109.65931437 -154 77 C-153.36787598 76.34064453 -152.73575195 75.68128906 -152.08447266 75.00195312 C-142.94002521 65.51369695 -133.64265991 56.7737956 -123 49 C-121.84894983 48.14193848 -120.69790823 47.28386549 -119.546875 46.42578125 C-111.35724019 40.38822604 -102.85461724 35.00542698 -94 30 C-93.29278809 29.5978125 -92.58557617 29.195625 -91.85693359 28.78125 C-68.53179086 15.64899458 -43.18848067 6.94477248 -17 1.5625 C-16.2056958 1.39838623 -15.4113916 1.23427246 -14.59301758 1.06518555 C-9.64953334 0.11946171 -5.03223186 -0.14296113 0 0 Z " fill="#FDFBFB" transform="translate(224,2)"/>
<path d="M0 0 C15.78505129 9.02002931 15.78505129 9.02002931 21.3828125 12.33984375 C21.99671844 12.70376724 22.61062439 13.06769073 23.24313354 13.44264221 C25.20458611 14.60620296 27.16488424 15.77168892 29.125 16.9375 C29.81319824 17.34629395 30.50139648 17.75508789 31.21044922 18.17626953 C41.41223784 24.23745603 51.57306425 30.36260672 61.70513916 36.53952026 C71.76030736 42.66786785 81.87511708 48.69140338 92.00878906 54.68887329 C106.07346658 63.01529808 120.04941645 71.48400102 134 80 C129.09695879 87.16190539 123.13642872 93.21998838 117 99.3125 C116.48833282 99.8226767 115.97666565 100.33285339 115.44949341 100.85848999 C107.7289111 108.53866066 99.87184443 115.66763929 91 122 C89.85554596 122.84861102 88.71234599 123.69891553 87.5703125 124.55078125 C79.37771579 130.603145 70.86414286 135.98918828 62 141 C60.93918213 141.60328125 60.93918213 141.60328125 59.85693359 142.21875 C19.39351807 165 19.39351807 165 0 165 C0 110.55 0 56.1 0 0 Z " fill="#012169" transform="translate(320,339)"/>
<path d="M0 0 C0 54.12 0 108.24 0 164 C-4.60410205 162.46529932 -7.59508209 161.22513771 -11.5859375 158.75390625 C-12.66488281 158.09132812 -13.74382812 157.42875 -14.85546875 156.74609375 C-15.42700684 156.39144043 -15.99854492 156.03678711 -16.58740234 155.67138672 C-19.70399926 153.7380921 -22.83327149 151.82547171 -25.9609375 149.91015625 C-26.61656677 149.50797882 -27.27219604 149.10580139 -27.94769287 148.69143677 C-35.25292754 144.21738293 -42.62559846 139.85871787 -50 135.5 C-60.03790278 129.56109077 -70.04196046 123.5718709 -80 117.5 C-91.72648901 110.35019794 -103.52020837 103.31814571 -115.34375 96.33007812 C-121.60882922 92.62491956 -127.8534042 88.90012424 -134 85 C-129.09695879 77.83809461 -123.13642872 71.78001162 -117 65.6875 C-116.48833282 65.1773233 -115.97666565 64.66714661 -115.44949341 64.14151001 C-107.7289111 56.46133934 -99.87184443 49.33236071 -91 43 C-89.85554596 42.15138898 -88.71234599 41.30108447 -87.5703125 40.44921875 C-79.37771579 34.396855 -70.86414286 29.01081172 -62 24 C-61.29278809 23.5978125 -60.58557617 23.195625 -59.85693359 22.78125 C-19.39351807 0 -19.39351807 0 0 0 Z " fill="#012169" transform="translate(192,8)"/>
<path d="M0 0 C0 54.12 0 108.24 0 164 C-37.06309822 158.70527168 -74.0234145 136.13315682 -102 112 C-103.11761719 111.04867187 -103.11761719 111.04867187 -104.2578125 110.078125 C-110.18852173 104.89126743 -115.77824254 99.35467669 -121.375 93.8125 C-122.16076416 93.0397876 -122.94652832 92.2670752 -123.75610352 91.47094727 C-124.50432373 90.72385498 -125.25254395 89.9767627 -126.0234375 89.20703125 C-126.69294434 88.5416333 -127.36245117 87.87623535 -128.05224609 87.19067383 C-130.33148047 84.62717796 -132.15317821 81.88607738 -134 79 C-132.76588379 78.27018921 -132.76588379 78.27018921 -131.50683594 77.52563477 C-116.96149159 68.92086577 -102.4300766 60.29706283 -88 51.5 C-77.37279705 45.02172151 -66.69015262 38.64270161 -55.97912598 32.30407715 C-45.06622246 25.84420466 -34.20528306 19.30360386 -23.3828125 12.69335938 C-18.04831963 9.43879955 -12.70285412 6.20337332 -7.328125 3.015625 C-5.86487793 2.14599121 -5.86487793 2.14599121 -4.37207031 1.25878906 C-2 0 -2 0 0 0 Z " fill="#012169" transform="translate(192,340)"/>
<path d="M0 0 C46.90966899 6.70138128 89.25689476 38.4409625 122 70.8125 C122.73065674 71.53002441 123.46131348 72.24754883 124.21411133 72.98681641 C128.00204194 76.76901775 131.23370829 80.41112546 134 85 C133.09765625 85.52464844 132.1953125 86.04929687 131.265625 86.58984375 C121.88737067 92.06524822 112.58704679 97.66363151 103.3125 103.3125 C94.90769064 108.43135227 86.4851891 113.514981 78 118.5 C69.82954107 123.30124401 61.71725754 128.19347443 53.625 133.125 C43.01848535 139.58756367 32.36869026 145.97411366 21.6875 152.3125 C20.99964417 152.72091125 20.31178833 153.12932251 19.60308838 153.55010986 C13.09415476 157.41340251 6.57229184 161.24440466 0 165 C0 110.55 0 56.1 0 0 Z " fill="#012169" transform="translate(320,8)"/>
<path d="M0 0 C4.09309 1.87756422 5.98371053 5.24643871 8.4296875 8.921875 C8.94015625 9.63859375 9.450625 10.3553125 9.9765625 11.09375 C10.69199219 12.145625 10.69199219 12.145625 11.421875 13.21875 C11.85612793 13.85651367 12.29038086 14.49427734 12.73779297 15.15136719 C13.88041028 17.97751807 13.66736126 19.34154074 12.5546875 22.171875 C10.22338867 24.03027344 10.22338867 24.03027344 7.09765625 25.78125 C6.53208008 26.10493561 5.96650391 26.42862122 5.38378906 26.76211548 C4.15648204 27.46216658 2.92486077 28.15469574 1.68954468 28.84051514 C-0.96883559 30.31670336 -3.60610582 31.8289127 -6.24528503 33.33908081 C-7.61662342 34.12327902 -8.98904557 34.90558483 -10.36250305 35.68606567 C-17.07752081 39.50694672 -23.67078465 43.50969504 -30.2578125 47.546875 C-37.67205415 52.07790333 -45.103142 56.57756797 -52.578125 61.0078125 C-53.26206833 61.41403336 -53.94601166 61.82025421 -54.65068054 62.23878479 C-58.10337416 64.28678551 -61.56391823 66.31905852 -65.04125977 68.32495117 C-70.83896551 71.68853978 -76.41269006 74.97147521 -81.58984375 79.26171875 C-98.61925927 92.89275941 -120.79815051 89.3212822 -141.4453125 88.171875 C-141.78027344 85.89746094 -141.78027344 85.89746094 -141.4453125 83.171875 C-139.22753906 81.31347656 -139.22753906 81.31347656 -136.0859375 79.5625 C-135.51881042 79.23872375 -134.95168335 78.91494751 -134.36737061 78.58135986 C-133.13448715 77.8802367 -131.89670769 77.18767001 -130.65478516 76.50268555 C-127.98734838 75.03137448 -125.34338752 73.51998171 -122.69714355 72.01098633 C-121.32182796 71.22740963 -119.9452615 70.44602471 -118.56750488 69.66674805 C-112.3505879 66.14564292 -106.24385455 62.45927301 -100.15548706 58.72146606 C-90.05147573 52.52029792 -79.8735033 46.45681512 -69.6328125 40.484375 C-59.07994842 34.32871235 -48.60786538 28.05367601 -38.1875 21.67578125 C-28.81201181 15.94121156 -19.37287489 10.31151655 -9.94287109 4.66723633 C-8.20825367 3.62867018 -6.48683211 2.56787103 -4.77636719 1.48999023 C-2.4453125 0.171875 -2.4453125 0.171875 0 0 Z " fill="#C81330" transform="translate(461.4453125,103.828125)"/>
<path d="M0 0 C2.02600204 0.03013727 4.05204725 0.05750642 6.078125 0.08203125 C11.0114933 0.14772842 15.94276571 0.25104257 20.875 0.375 C21.20996094 2.64941406 21.20996094 2.64941406 20.875 5.375 C18.65722656 7.23339844 18.65722656 7.23339844 15.515625 8.984375 C14.94863388 9.30806061 14.38164276 9.63174622 13.79747009 9.96524048 C12.56472048 10.66626612 11.32707798 11.35874042 10.08529663 12.04364014 C7.41430826 13.5170394 4.76701996 15.03089658 2.11735535 16.54220581 C0.74067214 17.32670762 -0.63726748 18.10900839 -2.0164032 18.88919067 C-8.74621171 22.70065074 -15.34460336 26.70673727 -21.9375 30.75 C-31.95388874 36.87061227 -42.02309241 42.89670017 -52.125 48.875 C-66.85979865 57.59796715 -81.50706703 66.45773772 -96.125 75.375 C-99.46709806 77.41279465 -102.80936695 79.45030703 -106.15209961 81.48706055 C-108.16779368 82.71547589 -110.18295895 83.94475949 -112.19750977 85.17504883 C-113.52673462 85.98558716 -113.52673462 85.98558716 -114.8828125 86.8125 C-115.6577002 87.28558594 -116.43258789 87.75867188 -117.23095703 88.24609375 C-119.125 89.375 -119.125 89.375 -121.125 90.375 C-123.46577326 86.92164796 -125.79633641 83.46152696 -128.125 80 C-128.79273438 79.01515625 -129.46046875 78.0303125 -130.1484375 77.015625 C-130.78007812 76.07460938 -131.41171875 75.13359375 -132.0625 74.1640625 C-132.94228516 72.86009521 -132.94228516 72.86009521 -133.83984375 71.52978516 C-135.125 69.375 -135.125 69.375 -135.125 67.375 C-134.19385376 66.87867065 -134.19385376 66.87867065 -133.24389648 66.37231445 C-125.09552881 61.98290828 -117.13540342 57.30054486 -109.1875 52.5625 C-107.76889293 51.71872861 -106.3502729 50.87497901 -104.93164062 50.03125 C-94.83353376 44.01889454 -84.78199394 37.93260547 -74.74682617 31.81591797 C-64.19881296 25.39298475 -53.58325059 19.08545947 -42.95703125 12.79296875 C-42.31647797 12.41267517 -41.67592468 12.03238159 -41.01596069 11.64056396 C-39.75775634 10.89772209 -38.49590839 10.16101481 -37.2303772 9.4307251 C-34.61225982 7.91158848 -32.13472342 6.38266573 -29.75537109 4.50683594 C-21.21443741 -2.00181907 -10.18774449 -0.26373354 0 0 Z " fill="#C81330" transform="translate(171.125,319.625)"/>
<path d="M0 0 C28.78403217 -1.93344643 52.17160811 -3.4450932 75.69921875 14.56591797 C80.85961063 18.46204492 86.48066472 21.63897128 92.04449463 24.9163208 C94.98148405 26.65505066 97.89193988 28.43578772 100.8046875 30.21484375 C101.8678418 30.86308105 102.93099609 31.51131836 104.02636719 32.17919922 C106.67186291 33.79907665 109.31017345 35.42975934 111.9453125 37.06640625 C112.6480127 37.49888672 113.35071289 37.93136719 114.07470703 38.37695312 C115.82461644 39.45450322 117.56888385 40.54120231 119.3125 41.62890625 C122.09100772 43.30296625 122.09100772 43.30296625 126 43 C124.43443954 48.24923212 122.18875022 52.96296857 119.6875 57.8125 C119.30916016 58.58787109 118.93082031 59.36324219 118.54101562 60.16210938 C117.96963867 61.2671582 117.96963867 61.2671582 117.38671875 62.39453125 C117.04858154 63.06331299 116.71044434 63.73209473 116.36206055 64.42114258 C115 66 115 66 112.69384766 66.90991211 C109.11627954 67.02955346 107.52722805 65.95401012 104.51171875 64.046875 C103.42955078 63.37462891 102.34738281 62.70238281 101.23242188 62.00976562 C100.6567749 61.64278564 100.08112793 61.27580566 99.48803711 60.89770508 C97.01628905 59.32215421 94.5248607 57.77898095 92.03445435 56.2331543 C90.71461995 55.413387 89.3958517 54.59190098 88.07809448 53.76879883 C81.45169379 49.6346511 74.73850115 45.65311385 68.01107788 41.68621826 C56.50382127 34.89875465 45.05039253 28.02761084 33.64538574 21.06982422 C24.61889277 15.56327018 15.5419272 10.15028659 6.39599609 4.84423828 C5.54859863 4.34907715 4.70120117 3.85391602 3.828125 3.34375 C3.0846582 2.91255859 2.34119141 2.48136719 1.57519531 2.03710938 C1.05538086 1.69486328 0.53556641 1.35261719 0 1 C0 0.67 0 0.34 0 0 Z " fill="#C71331" transform="translate(363,320)"/>
<path d="M0 0 C0.33 0.66 0.66 1.32 1 2 C2.65767963 2.68870927 4.32630362 3.35118364 6 4 C7.85050308 5.04557804 9.67843645 6.1316177 11.48828125 7.24609375 C12.57044922 7.90867188 13.65261719 8.57125 14.76757812 9.25390625 C15.3432251 9.60855957 15.91887207 9.96321289 16.51196289 10.32861328 C19.64451322 12.25783953 22.78523223 14.17367516 25.92578125 16.08984375 C26.58450226 16.49202118 27.24322327 16.89419861 27.92190552 17.30856323 C35.24277474 21.77069873 42.62049276 26.1358018 50 30.5 C63.69929965 38.60820505 77.3265326 46.82868398 90.91503906 55.12109375 C93.85326162 56.91062847 96.79663415 58.69131424 99.7421875 60.46875 C100.59828613 60.98695313 101.45438477 61.50515625 102.33642578 62.0390625 C103.89828121 62.98445426 105.46166181 63.92733285 107.02685547 64.8671875 C108.70152237 65.88405075 110.35393494 66.93746065 112 68 C112 68.33 112 68.66 112 69 C83.33795654 70.96914802 60.35664784 72.1904217 36.94140625 54.21826172 C32.57814168 50.92770545 27.93469169 48.17736612 23.25 45.375 C21.60353512 44.35075803 19.95901214 43.32338813 18.31640625 42.29296875 C8.29760468 36.05506518 -1.86579122 30.04773256 -12 24 C-10.83005112 20.26462103 -9.54290605 16.88360301 -7.6171875 13.4765625 C-6.95009766 12.28740234 -6.95009766 12.28740234 -6.26953125 11.07421875 C-5.57923828 9.86185547 -5.57923828 9.86185547 -4.875 8.625 C-4.17310547 7.37783203 -4.17310547 7.37783203 -3.45703125 6.10546875 C-2.30929451 4.06765046 -1.15686718 2.03264431 0 0 Z " fill="#C71230" transform="translate(36,123)"/>
<path d="M0 0 C21.78 0 43.56 0 66 0 C65.3183186 4.77176982 64.71717241 8.34297306 63.22265625 12.7578125 C62.87396484 13.79550781 62.52527344 14.83320313 62.16601562 15.90234375 C61.61977539 17.49755859 61.61977539 17.49755859 61.0625 19.125 C60.70220703 20.19621094 60.34191406 21.26742188 59.97070312 22.37109375 C58.41798746 26.96347195 56.83297189 31.51081961 55 36 C54.31639404 35.26281738 53.63278809 34.52563477 52.9284668 33.76611328 C50.00843818 30.85318811 46.70401692 28.78940656 43.14453125 26.7421875 C42.48909836 26.3567981 41.83366547 25.97140869 41.15837097 25.57434082 C39.76434956 24.7557656 38.36832614 23.94059152 36.97045898 23.12860107 C34.79847343 21.86685169 32.63192342 20.5962327 30.46679688 19.32275391 C27.61671749 17.64649854 24.76520422 15.97273178 21.91259766 14.30078125 C16.91611782 11.36763426 11.94852164 8.38831943 7 5.375 C6.26628174 4.93269043 5.53256348 4.49038086 4.77661133 4.03466797 C3.16644495 3.05195611 1.5795995 2.03112745 0 1 C0 0.67 0 0.34 0 0 Z " fill="#03236A" transform="translate(438,320)"/>
<path d="M0 0 C21.78 0 43.56 0 66 0 C62.11030556 3.11175555 58.34191718 5.70873715 54.07421875 8.1953125 C53.41340805 8.58476044 52.75259735 8.97420837 52.07176208 9.37545776 C50.66767799 10.20271463 49.26265079 11.02837258 47.85675049 11.85253906 C44.23341648 13.97795105 40.61901542 16.11845094 37.00390625 18.2578125 C36.30126648 18.6733136 35.59862671 19.0888147 34.87469482 19.51690674 C29.60023413 22.63813194 24.33881533 25.77815709 19.125 29 C18.19240356 29.56678467 18.19240356 29.56678467 17.2409668 30.14501953 C14.38656789 31.9261511 12.90661385 33.14007923 11 36 C9.53781274 31.98055777 8.08094308 27.95920781 6.625 23.9375 C6.2125 22.80376953 5.8 21.67003906 5.375 20.50195312 C-0 5.63400958 -0 5.63400958 0 0 Z " fill="#03226A" transform="translate(8,320)"/>
<path d="M0 0 C3.78455063 0.67866773 6.63283492 2.3820819 9.92578125 4.32421875 C10.50223389 4.66258255 11.07868652 5.00094635 11.67260742 5.3495636 C13.55569176 6.45701136 15.43422488 7.57191805 17.3125 8.6875 C18.61014565 9.4539869 19.90791694 10.22026116 21.20581055 10.98632812 C25.14323305 13.31414702 29.0730657 15.65453876 33 18 C33.60553711 18.36160217 34.21107422 18.72320435 34.83496094 19.09576416 C38.66733993 21.38643138 42.49219523 23.68926041 46.3125 26 C47.29581299 26.59256592 48.27912598 27.18513184 49.29223633 27.7956543 C50.18193115 28.33746338 51.07162598 28.87927246 51.98828125 29.4375 C52.76727783 29.91058594 53.54627441 30.38367188 54.34887695 30.87109375 C54.89374756 31.24363281 55.43861816 31.61617187 56 32 C56 32.33 56 32.66 56 33 C34.22 33 12.44 33 -10 33 C-9.31342171 28.19395198 -8.69414282 24.58874325 -7.1875 20.13671875 C-6.83429687 19.08548828 -6.48109375 18.03425781 -6.1171875 16.95117188 C-5.74851562 15.87416016 -5.37984375 14.79714844 -5 13.6875 C-4.63132812 12.59115234 -4.26265625 11.49480469 -3.8828125 10.36523438 C-1.16931548 2.33863095 -1.16931548 2.33863095 0 0 Z " fill="#02226A" transform="translate(18,159)"/>
<path d="M0 0 C10 26.64751744 10 26.64751744 10 33 C-11.78 33 -33.56 33 -56 33 C-52.26581555 30.01265244 -48.9567194 27.67921689 -44.87109375 25.3125 C-44.28794403 24.97286728 -43.70479431 24.63323456 -43.10397339 24.28330994 C-41.21723816 23.18523197 -39.32742427 22.09257839 -37.4375 21 C-34.82438264 19.48242201 -32.21284895 17.96213204 -29.6015625 16.44140625 C-28.95385391 16.06464249 -28.30614532 15.68787872 -27.6388092 15.29969788 C-20.97999314 11.41967304 -14.38320126 7.43764708 -7.81616211 3.40429688 C-7.06858643 2.94990234 -6.32101074 2.49550781 -5.55078125 2.02734375 C-4.58652222 1.43554321 -4.58652222 1.43554321 -3.6027832 0.83178711 C-2 0 -2 0 0 0 Z " fill="#022169" transform="translate(494,159)"/>
</svg>
