<?xml version="1.0" encoding="UTF-8"?>
<svg version="1.1" xmlns="http://www.w3.org/2000/svg" width="512" height="512">
<path d="M0 0 C1.01790619 0.00215515 2.03581238 0.0043103 3.08456421 0.00653076 C17.69363523 0.05620146 32.02575853 0.30709809 46.375 3.3125 C47.34985352 3.51117676 48.32470703 3.70985352 49.32910156 3.91455078 C97.7109774 14.03517194 141.69928269 35.9516877 177.375 70.3125 C178.3640332 71.26068604 178.3640332 71.26068604 179.37304688 72.22802734 C188.86130305 81.37247479 197.6012044 90.66984009 205.375 101.3125 C206.23306152 102.46355017 207.09113451 103.61459177 207.94921875 104.765625 C213.98736829 112.95680614 219.34595521 121.47054105 224.375 130.3125 C224.73948242 130.94430176 225.10396484 131.57610352 225.47949219 132.22705078 C247.08534998 169.97532572 256.85198095 212.74189997 256.6875 255.9375 C256.68534485 256.95540619 256.6831897 257.97331238 256.68096924 259.02206421 C256.63129854 273.63113523 256.38040191 287.96325853 253.375 302.3125 C253.07698486 303.77478027 253.07698486 303.77478027 252.77294922 305.26660156 C242.65232806 353.6484774 220.7358123 397.63678269 186.375 433.3125 C185.74287598 433.97185547 185.11075195 434.63121094 184.45947266 435.31054688 C175.31502521 444.79880305 166.01765991 453.5387044 155.375 461.3125 C154.22394983 462.17056152 153.07290823 463.02863451 151.921875 463.88671875 C143.73224019 469.92427396 135.22961724 475.30707302 126.375 480.3125 C125.66778809 480.7146875 124.96057617 481.116875 124.23193359 481.53125 C101.09654164 494.5566741 75.92537591 503.30551461 49.9375 508.625 C49.21860596 508.77235596 48.49971191 508.91971191 47.7590332 509.0715332 C33.08339502 511.86090125 18.55831162 512.66142619 3.64770508 512.62817383 C0.70811513 512.6250221 -2.2304558 512.64854926 -5.16992188 512.67382812 C-18.54306192 512.71848737 -31.43916711 511.51301542 -44.625 509.3125 C-46.33055054 509.03031616 -46.33055054 509.03031616 -48.07055664 508.74243164 C-91.33802759 500.97044532 -132.38793216 480.98345309 -165.625 452.3125 C-166.37007813 451.67828125 -167.11515625 451.0440625 -167.8828125 450.390625 C-181.38779833 438.57948485 -194.05918743 425.82889772 -204.625 411.3125 C-205.48149066 410.16255169 -206.33826433 409.01281411 -207.1953125 407.86328125 C-213.23534209 399.67315742 -218.61867614 391.16870382 -223.625 382.3125 C-224.0271875 381.60528809 -224.429375 380.89807617 -224.84375 380.16943359 C-237.8691741 357.03404164 -246.61801461 331.86287591 -251.9375 305.875 C-252.08485596 305.15610596 -252.23221191 304.43721191 -252.3840332 303.6965332 C-255.35789088 288.05024391 -255.99800362 272.57681954 -255.9375 256.6875 C-255.93534485 255.66959381 -255.9331897 254.65168762 -255.93096924 253.60293579 C-255.88129854 238.99386477 -255.63040191 224.66174147 -252.625 210.3125 C-252.42632324 209.33764648 -252.22764648 208.36279297 -252.02294922 207.35839844 C-241.90232806 158.9765226 -219.9858123 114.98821731 -185.625 79.3125 C-184.99287598 78.65314453 -184.36075195 77.99378906 -183.70947266 77.31445312 C-174.56502521 67.82619695 -165.26765991 59.0862956 -154.625 51.3125 C-153.47394983 50.45443848 -152.32290823 49.59636549 -151.171875 48.73828125 C-142.98224019 42.70072604 -134.47961724 37.31792698 -125.625 32.3125 C-124.91778809 31.9103125 -124.21057617 31.508125 -123.48193359 31.09375 C-100.34654164 18.0683259 -75.17537591 9.31948539 -49.1875 4 C-48.46860596 3.85264404 -47.74971191 3.70528809 -47.0090332 3.5534668 C-31.36274391 0.57960912 -15.88931954 -0.06050362 0 0 Z " fill="#D80027" transform="translate(255.625,-0.3125)"/>
<path d="M0 0 C0.66 0 1.32 0 2 0 C3.49535662 4.46099293 4.9885762 8.92269393 6.47998047 13.38500977 C6.98560571 14.8969158 7.49177332 16.40864057 7.99853516 17.92016602 C8.73489537 20.11685246 9.46917587 22.3142257 10.203125 24.51171875 C10.42309143 25.16645676 10.64305786 25.82119476 10.86968994 26.49577332 C13.0271099 32.96729226 14.99172828 39.4731169 17 46 C20.96 58.21 24.92 70.42 29 83 C58.04 83.33 87.08 83.66 117 84 C113.75387099 87.24612901 110.60100228 89.84263402 106.875 92.4375 C105.61552157 93.32630756 104.35642559 94.21565724 103.09765625 95.10546875 C102.43137207 95.5751709 101.76508789 96.04487305 101.07861328 96.52880859 C97.47381329 99.08019745 93.89265013 101.66418414 90.3125 104.25 C89.5604126 104.79309814 88.8083252 105.33619629 88.03344727 105.89575195 C80.0791835 111.65023937 72.18220852 117.48185868 64.28515625 123.31445312 C60.6328318 126.00843261 56.97310654 128.69229016 53.3125 131.375 C52.67030518 131.84566895 52.02811035 132.31633789 51.36645508 132.80126953 C49.91110732 133.86770038 48.45557712 134.93388223 47 136 C49.18372021 144.52405853 51.84969077 152.86936158 54.60726166 161.22024536 C55.3752012 163.54797128 56.13860288 165.87714087 56.9006958 168.20678711 C59.06476917 174.82128279 61.23266504 181.43449105 63.41357422 188.04345703 C64.75385579 192.10608688 66.08549456 196.17146106 67.41150665 200.23876953 C67.91701549 201.78363432 68.42580381 203.32742998 68.93791962 204.87011719 C69.6500574 207.01630222 70.35116329 209.16579671 71.04980469 211.31640625 C71.45156921 212.53787354 71.85333374 213.75934082 72.26727295 215.01782227 C73 218 73 218 72 221 C71.22398437 220.39414062 70.44796875 219.78828125 69.6484375 219.1640625 C62.20497171 213.37988631 54.62910368 207.82754206 46.93798828 202.37890625 C43.36155605 199.8342238 39.80668977 197.25966679 36.25 194.6875 C35.50041016 194.14569092 34.75082031 193.60388184 33.97851562 193.0456543 C32.43984962 191.9333952 30.90127642 190.82100769 29.36279297 189.70849609 C25.34679883 186.80459787 21.32971896 183.90220346 17.3125 181 C16.58256836 180.47237061 15.85263672 179.94474121 15.10058594 179.40112305 C13.72259134 178.4055331 12.34106275 177.41481101 10.95556641 176.4296875 C9.6442252 175.47098412 8.35940557 174.47499288 7.10302734 173.4453125 C5.12114402 171.79973308 5.12114402 171.79973308 2 170 C-3.04091469 170.61675139 -7.70303112 175.30081841 -11.6875 178.3125 C-13.39786814 179.58930472 -15.10881941 180.86532862 -16.8203125 182.140625 C-17.6855957 182.78708984 -18.55087891 183.43355469 -19.44238281 184.09960938 C-23.2890504 186.9578053 -27.17285565 189.76320955 -31.0625 192.5625 C-31.79573486 193.09109619 -32.52896973 193.61969238 -33.28442383 194.16430664 C-36.30255808 196.33949383 -39.32229284 198.51245207 -42.34228516 200.68505859 C-51.63003547 207.36847999 -60.88439141 214.08286172 -70 221 C-71.23958798 217.28123606 -70.59752641 216.04064101 -69.37280273 212.36132812 C-68.99167831 211.20161499 -68.61055389 210.04190186 -68.21788025 208.8470459 C-67.78992274 207.5750675 -67.36182331 206.30313684 -66.93359375 205.03125 C-66.49731587 203.71369 -66.06186939 202.39585444 -65.62721252 201.07775879 C-64.47499409 197.59061329 -63.312294 194.10705319 -62.14715576 190.62420654 C-60.98771494 187.15366222 -59.83669972 183.68033164 -58.68554688 180.20703125 C-58.46146967 179.53141144 -58.23739246 178.85579163 -58.00652504 178.15969849 C-56.89497414 174.80783232 -55.784773 171.45552531 -54.67660522 168.10253906 C-54.46315271 167.45684967 -54.2497002 166.81116028 -54.02977943 166.14590454 C-53.40753497 164.26347265 -52.78540079 162.38100431 -52.16326904 160.49853516 C-51.10157475 157.30548635 -50.02243256 154.11896889 -48.93798828 150.93359375 C-48.36565521 149.21633095 -47.79382913 147.49889904 -47.22265625 145.78125 C-46.95980331 145.02952515 -46.69695038 144.27780029 -46.4261322 143.5032959 C-45.14639827 139.61423813 -45.14639827 139.61423813 -45.69702148 135.64624023 C-47.72848882 133.07959525 -50.31611183 131.37765595 -53 129.5625 C-54.27659266 128.67527144 -55.5526064 127.78720948 -56.828125 126.8984375 C-57.50681641 126.42889648 -58.18550781 125.95935547 -58.88476562 125.47558594 C-62.53983193 122.92581438 -66.14221961 120.30353294 -69.75 117.6875 C-71.28632643 116.57664046 -72.82278609 115.46596518 -74.359375 114.35546875 C-75.12701172 113.80036621 -75.89464844 113.24526367 -76.68554688 112.67333984 C-79.7105987 110.48624014 -82.73674336 108.30065647 -85.76318359 106.11547852 C-87.24562337 105.04482756 -88.72772397 103.97370681 -90.20947266 102.90209961 C-94.17664211 100.03381952 -98.15032915 97.1751131 -102.1328125 94.328125 C-102.968125 93.72935547 -103.8034375 93.13058594 -104.6640625 92.51367188 C-106.27934101 91.35605561 -107.89647227 90.20101932 -109.515625 89.04882812 C-110.59457031 88.27442383 -110.59457031 88.27442383 -111.6953125 87.484375 C-112.6546167 86.79939941 -112.6546167 86.79939941 -113.63330078 86.10058594 C-114.30981689 85.5557959 -114.30981689 85.5557959 -115 85 C-115 84.67 -115 84.34 -115 84 C-71.44 83.505 -71.44 83.505 -27 83 C-24.36 74.75 -21.72 66.5 -19 58 C-15.3125 47.5 -15.3125 47.5 -13.58203125 42.62109375 C-11.84818665 37.64314826 -10.36656582 32.60797539 -8.92431641 27.53930664 C-6.2602926 18.26134409 -3.10429925 9.13796974 0 0 Z " fill="#FED843" transform="translate(255,135)"/>
</svg>
